<svg xmlns="http://www.w3.org/2000/svg" viewBox="0 0 500 500"><g id="freepik--background-simple--inject-32"><path d="M386.46,129.32a210.46,210.46,0,0,0-10.86-19C329.49,40,206,1.75,144.8,74.43c-14.58,17.32-19.67,38.25-29.48,58.12-22.33,45.19-64,72.2-90.2,114C4.84,279,7.55,320.59,18.86,355.65c12.29,38.1,33.92,64.71,68.52,84.94,38.78,22.68,80.27,16.38,122.19,8.49,18.86-3.55,38.3-7.17,57.58-5.82,24.14,1.7,48,8.53,71.91,11.85,24.91,3.46,50.75,4.27,74.74-3.25,76.83-24.1,95-137,63.44-201.74-11.19-22.9-30.14-40.56-47.74-58.49C410.5,172.28,398.85,153.35,386.46,129.32Z" style="fill:#92E3A9"></path><path d="M386.46,129.32a210.46,210.46,0,0,0-10.86-19C329.49,40,206,1.75,144.8,74.43c-14.58,17.32-19.67,38.25-29.48,58.12-22.33,45.19-64,72.2-90.2,114C4.84,279,7.55,320.59,18.86,355.65c12.29,38.1,33.92,64.71,68.52,84.94,38.78,22.68,80.27,16.38,122.19,8.49,18.86-3.55,38.3-7.17,57.58-5.82,24.14,1.7,48,8.53,71.91,11.85,24.91,3.46,50.75,4.27,74.74-3.25,76.83-24.1,95-137,63.44-201.74-11.19-22.9-30.14-40.56-47.74-58.49C410.5,172.28,398.85,153.35,386.46,129.32Z" style="fill:#fff;opacity:0.8"></path></g><g id="freepik--Shadow--inject-32"><ellipse cx="235.26" cy="477.43" rx="93.31" ry="11.78" style="fill:#263238;stroke:#263238;stroke-linecap:round;stroke-linejoin:round;opacity:0.4"></ellipse></g><g id="freepik--Lines--inject-32"><line x1="408.86" y1="106.48" x2="401.4" y2="111.38" style="fill:none;stroke:#263238;stroke-linecap:round;stroke-linejoin:round"></line><line x1="449.32" y1="79.96" x2="413.6" y2="103.38" style="fill:none;stroke:#263238;stroke-linecap:round;stroke-linejoin:round"></line><line x1="311.75" y1="32.56" x2="297.71" y2="54.82" style="fill:none;stroke:#263238;stroke-linecap:round;stroke-linejoin:round"></line><line x1="320.49" y1="18.69" x2="314.9" y2="27.56" style="fill:none;stroke:#263238;stroke-linecap:round;stroke-linejoin:round"></line><line x1="127.25" y1="45.39" x2="133.54" y2="51.68" style="fill:none;stroke:#263238;stroke-linecap:round;stroke-linejoin:round"></line><line x1="108.4" y1="26.54" x2="123.32" y2="41.47" style="fill:none;stroke:#263238;stroke-linecap:round;stroke-linejoin:round"></line><line x1="84.31" y1="138.58" x2="91.9" y2="140.44" style="fill:none;stroke:#263238;stroke-linecap:round;stroke-linejoin:round"></line><line x1="50.27" y1="130.23" x2="76.73" y2="136.72" style="fill:none;stroke:#263238;stroke-linecap:round;stroke-linejoin:round"></line><line x1="225.44" y1="18.69" x2="227.8" y2="39.9" style="fill:none;stroke:#263238;stroke-linecap:round;stroke-linejoin:round"></line></g><g id="freepik--Plants--inject-32"><path d="M73.4,293.45c3.19-2.53,7.28-10.69,7.28-10.69s-6.2-1.07-6.6-1.08c-4.63-.2-13.7,2.16-15.5,7a6.16,6.16,0,0,0,4.5,8C66.63,297.6,70.69,295.61,73.4,293.45Z" style="fill:#92E3A9"></path><path d="M98.22,303c2.31-3.16,4-11.46,4.17-12.12a107.53,107.53,0,0,0,14.38,2c2.82.23,5.66.37,8.51.47-1.31.15-2.48.29-2.64.32-4.52,1.05-12.65,5.71-13.09,10.89a6.15,6.15,0,0,0,6.44,6.5c3.67-.06,7.06-3.05,9.1-5.85s3.69-9.88,4.1-11.75c1.09,0,2.18.07,3.28.09,5.25.11,10.49.21,15.63.45,1.81.09,3.59.24,5.37.38-1.17.14-2.14.26-2.29.29-4.52,1-12.65,5.71-13.09,10.89a6.14,6.14,0,0,0,6.44,6.49c3.67-.05,7.05-3.05,9.1-5.84s3.53-9.2,4-11.42c1.82.2,3.64.4,5.4.68,1.19.22,2.35.35,3.54.63l3.51.77c2.21.57,4.49,1.14,6.64,1.75,1.49.41,2.91.83,4.33,1.25-1.8-.11-5.33-.24-5.62-.22-4.63.34-13.37,3.73-14.59,8.78a6.14,6.14,0,0,0,5.38,7.4c3.64.5,7.44-1.95,9.88-4.4,2.7-2.71,5.58-10.32,5.93-11.28,2.36.71,4.65,1.41,6.8,2.11,1.93.62,3.74,1.24,5.47,1.83l1.53-2.87c-1.91-.62-3.93-1.25-6.08-1.9-2.4-.72-5-1.44-7.62-2.16a68.77,68.77,0,0,0,.38-7.85c3.79-1,9.95-5.44,10.75-6,1.58,1.88,3.1,3.74,4.5,5.51q1.46,1.81,2.78,3.53l1.61-3c-.65-.8-1.31-1.6-2-2.43-1.6-1.92-3.34-3.95-5.15-6,.63-.77,5.81-7.07,6.81-10.76.91-3.35,1.14-7.86-1.11-10.76a6.15,6.15,0,0,0-9.1-1c-3.76,3.58-2.34,12.84-.33,17,.12.25,1.7,2.78,2.73,4.36-.74-.83-1.46-1.65-2.24-2.51-1.52-1.7-3.09-3.35-4.78-5.13l-2.56-2.52c-.83-.85-1.82-1.66-2.74-2.5-2.18-1.91-4.47-3.73-6.82-5.53,1.48-1.34,6.68-6.17,8.09-9.35s2.31-7.6.53-10.8a6.14,6.14,0,0,0-8.84-2.35c-4.27,3-4.27,12.34-2.91,16.78.08.27,1.41,3.35,2.17,5-1.42-1.06-2.83-2.13-4.31-3.16-4.25-3-8.65-5.86-13-8.76-1.34-.88-2.67-1.78-4-2.67.53-.48,6.84-6.09,8.42-9.65,1.4-3.17,2.31-7.6.53-10.8a6.14,6.14,0,0,0-8.85-2.35c-4.26,3-4.26,12.34-2.91,16.77.11.34,2,4.76,2.57,5.86-2.93-2-5.83-4-8.61-6A107.21,107.21,0,0,1,133,231c.25-.22,6.85-6,8.47-9.7,1.4-3.16,2.31-7.59.53-10.8a6.15,6.15,0,0,0-8.84-2.35c-4.27,3-4.27,12.34-2.91,16.78.1.35,2.17,5.11,2.6,5.94-.19-.19-.41-.36-.6-.56a77.88,77.88,0,0,1-8.93-10.88c-1.49-2.12-2.8-4.24-4-6.33,1.34-1,7.42-5.41,9.24-8.53s3.13-7.3,1.71-10.68a6.15,6.15,0,0,0-8.53-3.31c-4.57,2.48-5.59,11.8-4.73,16.36,0,.25.8,2.71,1.37,4.5-.54-.95-1.11-1.92-1.61-2.84-1.87-3.45-3.38-6.73-4.69-9.64-.73-1.67-1.36-3.18-1.93-4.61.83-1.63,4.07-8.23,4.24-11.78s-.58-7.92-3.39-10.27a6.15,6.15,0,0,0-9.1,1c-2.91,4.31.47,13,3.33,16.7.25.32,4.69,4.81,4.73,4.72l.05-.09c.52,1.38,1.1,2.86,1.76,4.46,1.25,2.95,2.69,6.27,4.5,9.77a109.58,109.58,0,0,0,6.36,11.05,80.71,80.71,0,0,0,8.81,11.21l.12.12c-1.33-.74-5.13-2.67-5.43-2.79-4.35-1.62-13.7-2.21-16.93,1.86a6.15,6.15,0,0,0,1.79,9c3.09,2,7.57,1.35,10.82.15,3.66-1.36,9.68-7.33,10.16-7.81a108.83,108.83,0,0,0,10.87,9.63c2.23,1.74,4.52,3.43,6.84,5.08-1.17-.59-2.22-1.12-2.38-1.18C143,243.55,133.6,243,130.38,247a6.14,6.14,0,0,0,1.79,9c3.09,2,7.56,1.35,10.81.15s8.53-6.21,9.9-7.55l2.68,1.89c4.32,3,8.64,5.95,12.79,9,1.46,1.07,2.86,2.18,4.27,3.29-1-.53-1.93-1-2.07-1-4.34-1.62-13.7-2.21-16.92,1.86a6.15,6.15,0,0,0,1.79,9c3.09,2,7.56,1.34,10.81.14s8-5.73,9.65-7.31c1.41,1.17,2.82,2.35,4.13,3.55.87.84,1.77,1.59,2.61,2.48l2.5,2.57c1.53,1.7,3.12,3.43,4.57,5.12,1,1.17,2,2.31,2.93,3.44-1.45-1.08-4.32-3.14-4.57-3.29a24,24,0,0,0-11.77-2.6,6.28,6.28,0,0,0-1.24-.56,6.14,6.14,0,0,0-8.13,4.2c-1.17,5.06,5.13,12,9.11,14.38.24.14,3,1.38,4.69,2.13-1.09-.28-2.14-.58-3.26-.86-2.2-.57-4.43-1.08-6.81-1.64l-3.53-.69c-1.17-.25-2.44-.37-3.67-.57-2.86-.39-5.79-.65-8.73-.85.49-1.94,2.16-8.83,1.58-12.27s-2.26-7.61-5.51-9.3a6.15,6.15,0,0,0-8.68,2.92c-1.92,4.83,3.26,12.64,6.83,15.6.23.18,3,2,4.59,3-1.77-.1-3.54-.21-5.34-.26-5.19-.14-10.45-.12-15.69-.11-1.61,0-3.21,0-4.81,0,.18-.69,2.34-8.85,1.69-12.69-.57-3.42-2.26-7.61-5.51-9.31a6.15,6.15,0,0,0-8.67,2.92c-1.93,4.83,3.25,12.65,6.82,15.6.27.22,4.31,2.86,5.37,3.47-3.53,0-7-.09-10.51-.29a108.13,108.13,0,0,1-14-1.65c.09-.32,2.39-8.82,1.72-12.76-.58-3.42-2.26-7.61-5.52-9.3a6.15,6.15,0,0,0-8.67,2.92c-1.92,4.83,3.25,12.64,6.83,15.6.28.23,4.63,3.06,5.45,3.51-.26-.05-.55-.07-.81-.12a79.79,79.79,0,0,1-13.45-4.15c-2.42-1-4.68-2-6.85-3.07.59-1.54,3.21-8.61,3-12.22s-1.41-7.81-4.46-9.85a6.15,6.15,0,0,0-8.94,1.95c-2.44,4.59,1.84,12.92,5.08,16.26.17.18,2.16,1.82,3.63,3-1-.5-2-1-2.91-1.49-3.47-1.84-6.53-3.75-9.23-5.45-1.53-1-2.89-1.91-4.16-2.78-.21-1.82-1.14-9.11-3-12.17s-4.85-6.28-8.5-6.68a6.14,6.14,0,0,0-7,5.85c0,5.19,7.59,10.62,12,12.09.38.12,6.56,1.42,6.55,1.33s0-.09,0-.11c1.2.86,2.49,1.78,3.93,2.75,2.67,1.77,5.7,3.74,9.14,5.67a110,110,0,0,0,11.4,5.7,80.4,80.4,0,0,0,13.53,4.49l.17,0c-1.52.12-5.75.61-6.07.68-4.52,1-12.65,5.71-13.09,10.89a6.14,6.14,0,0,0,6.44,6.49C92.79,308.83,96.18,305.83,98.22,303Z" style="fill:#92E3A9"></path><path d="M118.36,212.86c.08,0-4.58-4.3-4.9-4.54-3.76-2.71-12.63-5.75-16.82-2.67a6.15,6.15,0,0,0-.64,9.13c2.46,2.72,6.94,3.29,10.39,3C110.45,217.42,118.36,212.87,118.36,212.86Z" style="fill:#92E3A9"></path><path d="M416.18,284.91c-4-.68-11.53-5.85-11.54-5.85s4.91-3.92,5.25-4.13c4-2.41,13.05-4.73,17-1.33a6.15,6.15,0,0,1-.09,9.15C424.11,285.27,419.6,285.48,416.18,284.91Z" style="fill:#92E3A9"></path><path d="M399.09,305.29c-3.55-1.64-9.07-8.07-9.51-8.59A107.29,107.29,0,0,1,378,305.43c-2.35,1.56-4.77,3.06-7.22,4.52,1.22-.5,2.31-.94,2.47-1,4.46-1.27,13.83-1.11,16.72,3.21a6.15,6.15,0,0,1-2.5,8.8c-3.24,1.72-7.65.74-10.79-.72s-8-6.87-9.27-8.31l-2.82,1.66c-4.55,2.64-9.09,5.25-13.47,7.95-1.54.95-3,1.95-4.52,2.93,1.09-.44,2-.81,2.15-.85,4.46-1.28,13.83-1.12,16.72,3.2a6.15,6.15,0,0,1-2.5,8.8c-3.24,1.73-7.65.74-10.8-.72s-7.53-6.34-9-8.05c-1.5,1.06-3,2.11-4.4,3.21-.93.76-1.89,1.44-2.79,2.26l-2.7,2.37c-1.66,1.56-3.39,3.17-5,4.74-1.11,1.08-2.14,2.13-3.19,3.19,1.52-1,4.55-2.79,4.82-2.91,4.22-1.94,13.5-3.2,17,.63a6.15,6.15,0,0,1-1.13,9.08c-2.94,2.19-7.45,1.89-10.78.92-3.67-1.06-9.87-6.34-10.64-7-1.73,1.75-3.39,3.48-4.93,5.13-1.39,1.48-2.68,2.89-3.91,4.25L312.77,351c1.38-1.47,2.84-3,4.41-4.6,1.75-1.79,3.65-3.67,5.62-5.58a68.77,68.77,0,0,1-4.12-6.68c-3.8,1-11.35,0-12.32-.08-.47,2.42-.91,4.77-1.28,7-.27,1.53-.5,3-.73,4.43l-2.88-1.89c.18-1,.37-2,.58-3.09.47-2.46,1-5.07,1.61-7.75-.93-.36-8.52-3.38-11.18-6.13-2.41-2.49-4.79-6.33-4.22-9.95a6.15,6.15,0,0,1,7.49-5.26c5,1.31,8.26,10.11,8.52,14.74,0,.28-.15,3.26-.28,5.14.24-1.09.47-2.16.74-3.28.51-2.22,1.09-4.43,1.71-6.8.34-1.14.68-2.28,1-3.44s.8-2.34,1.2-3.52c1-2.72,2.1-5.43,3.29-8.14-1.94-.45-8.83-2.17-11.6-4.27s-5.7-5.54-5.69-9.21a6.15,6.15,0,0,1,6.61-6.33c5.17.54,9.69,8.75,10.65,13.29.06.28.39,3.61.53,5.45.73-1.62,1.45-3.24,2.24-4.86,2.29-4.66,4.74-9.31,7.18-13.95l2.2-4.28c-.7-.16-8.93-2-12-4.38-2.76-2.09-5.7-5.53-5.69-9.2A6.16,6.16,0,0,1,313,262c5.17.54,9.69,8.74,10.66,13.28.07.34.53,5.14.58,6.37,1.61-3.14,3.19-6.29,4.62-9.45a109.32,109.32,0,0,0,5-13.12c-.32-.08-8.92-2-12.1-4.4-2.76-2.09-5.7-5.53-5.69-9.2a6.16,6.16,0,0,1,6.61-6.33c5.17.54,9.69,8.74,10.66,13.28.07.36.56,5.52.58,6.46.08-.26.19-.52.27-.78a79.71,79.71,0,0,0,2.56-13.84c.27-2.58.39-5.07.45-7.49-1.63-.19-9.11-1.14-12.21-3s-6.27-4.87-6.67-8.52a6.16,6.16,0,0,1,5.88-7c5.19,0,10.59,7.63,12,12,.08.24.61,2.77,1,4.61,0-1.09.05-2.22,0-3.26,0-3.93-.3-7.53-.56-10.71-.16-1.81-.35-3.45-.54-5-1.51-1-7.54-5.24-9.4-8.26s-3.32-7.21-2-10.63a6.15,6.15,0,0,1,8.45-3.53c4.63,2.37,5.89,11.65,5.15,16.23-.07.4-1.78,6.48-1.86,6.42l-.09-.06c.21,1.47.42,3,.61,4.76.34,3.19.68,6.79.8,10.73a110.6,110.6,0,0,1-.24,12.74,80.55,80.55,0,0,1-2.29,14.08c0,.05,0,.11-.05.16.81-1.29,3.2-4.82,3.41-5.06,3-3.53,10.92-8.57,15.72-6.56a6.15,6.15,0,0,1,2.77,8.72c-1.75,3.23-6,4.84-9.4,5.35-3.87.59-12-1.73-12.67-1.92a108.19,108.19,0,0,1-4.86,13.69c-1.11,2.6-2.3,5.18-3.54,7.75.74-1.09,1.41-2.06,1.52-2.18,3-3.53,10.92-8.57,15.71-6.56a6.14,6.14,0,0,1,2.77,8.72c-1.75,3.23-6,4.84-9.4,5.36s-10.47-1.32-12.31-1.83c-.48,1-.95,2-1.44,2.95-2.33,4.71-4.68,9.39-6.84,14.06-.77,1.65-1.46,3.29-2.15,4.94.65-1,1.21-1.78,1.31-1.9,3-3.52,10.92-8.56,15.71-6.55a6.15,6.15,0,0,1,2.78,8.72c-1.75,3.22-6,4.84-9.4,5.35s-9.79-1.13-12-1.73c-.67,1.71-1.33,3.42-1.9,5.1-.36,1.16-.79,2.25-1.08,3.43s-.64,2.32-.95,3.46c-.52,2.23-1.07,4.52-1.53,6.7-.32,1.51-.61,3-.9,4.42.74-1.64,2.26-4.83,2.42-5.09a23.81,23.81,0,0,1,9-8,7.31,7.31,0,0,1,.82-1.1,6.16,6.16,0,0,1,9.15-.25c3.47,3.87,1.31,13-1,17-.14.24-1.92,2.63-3.07,4.13.81-.78,1.59-1.54,2.43-2.33,1.66-1.57,3.36-3.09,5.18-4.73l2.75-2.3c.9-.79,2-1.51,2.94-2.28,2.32-1.73,4.75-3.37,7.24-5-1.38-1.46-6.17-6.69-7.32-10s-1.7-7.75.33-10.81a6.14,6.14,0,0,1,9-1.63c4,3.29,3.27,12.64,1.56,16.95-.1.27-1.67,3.23-2.57,4.84,1.51-.95,3-1.9,4.55-2.81,4.48-2.63,9.09-5.15,13.69-7.68l4.19-2.36c-.49-.51-6.33-6.6-7.62-10.28-1.14-3.27-1.7-7.76.33-10.82a6.15,6.15,0,0,1,9-1.63c4,3.3,3.26,12.64,1.56,17-.13.32-2.39,4.58-3,5.63,3.07-1.73,6.12-3.48,9.06-5.33A109.41,109.41,0,0,0,388.58,296c-.23-.24-6.35-6.57-7.67-10.34-1.14-3.27-1.7-7.76.33-10.81a6.16,6.16,0,0,1,9-1.64c4,3.3,3.26,12.64,1.56,17-.13.34-2.57,4.91-3.07,5.71.2-.17.44-.33.65-.5a79.28,79.28,0,0,0,9.77-10.14c1.65-2,3.12-4,4.51-6-1.26-1.06-7-6-8.53-9.24s-2.54-7.53-.86-10.79a6.15,6.15,0,0,1,8.77-2.61c4.35,2.84,4.63,12.2,3.41,16.68-.06.24-1,2.65-1.73,4.38.62-.9,1.27-1.82,1.83-2.7,2.15-3.29,3.91-6.44,5.45-9.24.86-1.6,1.61-3.06,2.29-4.44-.69-1.69-3.4-8.53-3.29-12.08s1.22-7.84,4.21-10a6.15,6.15,0,0,1,9,1.72c2.56,4.52-1.51,13-4.66,16.38-.27.29-5.05,4.42-5.09,4.33l0-.1c-.63,1.33-1.33,2.76-2.11,4.31-1.48,2.83-3.18,6-5.26,9.38a109.17,109.17,0,0,1-7.23,10.5,79.68,79.68,0,0,1-9.67,10.47l-.14.11c1.39-.63,5.33-2.25,5.65-2.34,4.46-1.28,13.83-1.12,16.72,3.2a6.15,6.15,0,0,1-2.5,8.8C406.64,307.74,402.23,306.75,399.09,305.29Z" style="fill:#92E3A9"></path><path d="M337.87,236.09c-.09,0,1.93-6,2.1-6.35,2-4.19,8.27-11.14,13.43-10.47a6.15,6.15,0,0,1,5,7.68c-.84,3.57-4.48,6.24-7.65,7.65C347,236.25,337.88,236.09,337.87,236.09Z" style="fill:#92E3A9"></path><path d="M132.16,167.61c1.74-.92,4.42-4.45,4.42-4.45s-2.86-1.06-3-1.1c-2.2-.51-6.73-.2-8,2a3,3,0,0,0,1.44,4.2C128.56,169,130.67,168.4,132.16,167.61Z" style="fill:#92E3A9"></path><path d="M143.14,174.4c1.38-1.3,3-5.11,3.07-5.41a51.85,51.85,0,0,0,6.68,2.25c1.32.36,2.66.68,4,1l-1.28-.08c-2.25.1-6.55,1.6-7.22,4a3,3,0,0,0,2.49,3.67c1.76.3,3.64-.83,4.87-2s2.64-4.38,3-5.24l1.55.34c2.5.52,5,1,7.41,1.61.86.2,1.7.43,2.53.66l-1.11-.07c-2.25.1-6.55,1.6-7.22,4a3,3,0,0,0,2.49,3.67c1.76.3,3.64-.83,4.87-2s2.5-4.07,2.93-5.08c.85.26,1.7.51,2.51.8.55.21,1.1.38,1.64.62l1.6.68c1,.47,2,.94,3,1.43.68.33,1.31.65,2,1-.85-.21-2.52-.59-2.67-.61-2.23-.25-6.7.59-7.74,2.89a3,3,0,0,0,1.91,4c1.69.56,3.72-.27,5.11-1.22s3.57-4.42,3.83-4.85c1.06.55,2.09,1.09,3,1.61s1.68.93,2.45,1.37l1-1.24c-.85-.46-1.76-1-2.73-1.45s-2.24-1.13-3.44-1.71a29.35,29.35,0,0,0,.88-3.71,21.36,21.36,0,0,0,5.67-1.91c.58,1,1.14,2.06,1.65,3,.36.67.69,1.31,1,1.93l1-1.31c-.23-.44-.48-.88-.73-1.34-.59-1.06-1.25-2.18-1.93-3.32.38-.31,3.41-2.86,4.22-4.52s1.24-3.65.43-5.24a3,3,0,0,0-4.26-1.27c-2.11,1.37-2.26,5.91-1.67,8.08,0,.13.56,1.48.91,2.33l-.84-1.4c-.58-1-1.18-1.87-1.83-2.87l-1-1.43c-.32-.49-.73-1-1.09-1.44-.86-1.1-1.79-2.18-2.76-3.24.83-.51,3.74-2.35,4.7-3.74s1.78-3.42,1.22-5.11a3,3,0,0,0-4-1.91c-2.3,1-3.14,5.51-2.89,7.74,0,.14.38,1.73.59,2.6-.58-.64-1.16-1.28-1.77-1.9-1.76-1.8-3.61-3.56-5.43-5.33l-1.67-1.64c.3-.18,3.8-2.29,4.87-3.85,1-1.38,1.78-3.41,1.22-5.1a3,3,0,0,0-4-1.91c-2.3,1-3.13,5.5-2.88,7.74,0,.17.54,2.45.7,3-1.22-1.2-2.43-2.41-3.57-3.65a52.56,52.56,0,0,1-4.3-5.28c.14-.08,3.81-2.27,4.9-3.87,1-1.38,1.78-3.41,1.22-5.1a3,3,0,0,0-4-1.91c-2.3,1-3.13,5.5-2.88,7.74,0,.18.58,2.63.71,3.07-.07-.11-.16-.21-.24-.32a39.44,39.44,0,0,1-3.29-6c-.52-1.15-.95-2.27-1.35-3.38.73-.34,4-1.91,5.17-3.24s2.15-3.2,1.77-4.94a3,3,0,0,0-3.77-2.34c-2.4.77-3.72,5.13-3.72,7.38,0,.12.14,1.36.25,2.27-.17-.5-.36-1-.51-1.5-.59-1.81-1-3.51-1.38-5-.2-.86-.36-1.64-.51-2.37.54-.7,2.68-3.56,3.08-5.24s.43-3.82-.71-5.2a3,3,0,0,0-4.42-.33c-1.78,1.79-.94,6.26.1,8.26.09.17,1.8,2.71,1.83,2.67l0,0c.13.71.27,1.46.44,2.29.34,1.51.73,3.23,1.28,5.06a51.26,51.26,0,0,0,2,5.83,38.72,38.72,0,0,0,3.19,6.14l.05.06c-.57-.47-2.2-1.73-2.34-1.81-1.93-1.16-6.34-2.28-8.24-.62a3,3,0,0,0,.06,4.44c1.29,1.21,3.48,1.31,5.14,1,1.87-.32,5.27-2.63,5.54-2.82a53.19,53.19,0,0,0,4.33,5.57c.9,1,1.85,2,2.81,3-.51-.39-1-.74-1-.78-1.93-1.16-6.34-2.28-8.24-.62a3,3,0,0,0,.05,4.44c1.3,1.22,3.49,1.31,5.15,1s4.62-2.2,5.39-2.71l1.11,1.13c1.8,1.82,3.59,3.62,5.3,5.44.6.64,1.17,1.29,1.74,1.94l-.89-.67c-1.93-1.16-6.34-2.28-8.24-.62a3,3,0,0,0,0,4.44c1.3,1.21,3.49,1.31,5.15,1s4.33-2,5.25-2.62c.57.68,1.14,1.37,1.65,2.05.35.48.71.92,1,1.42l1,1.45c.58.95,1.18,1.92,1.72,2.85.38.65.74,1.27,1.09,1.9-.59-.64-1.78-1.88-1.89-2a11.56,11.56,0,0,0-5.37-2.3,4,4,0,0,0-.54-.38,3,3,0,0,0-4.26,1.28c-1,2.31,1.38,6.19,3.07,7.68.1.08,1.28.92,2,1.43l-1.47-.7c-1-.47-2-.91-3.11-1.39l-1.62-.64c-.53-.23-1.13-.4-1.7-.6-1.33-.45-2.7-.83-4.09-1.19.41-.88,1.82-4,1.85-5.71s-.4-3.83-1.8-4.93a3,3,0,0,0-4.39.62c-1.35,2.13.42,6.32,1.86,8.05.09.11,1.26,1.23,1.92,1.84-.83-.21-1.67-.42-2.52-.6-2.47-.53-5-1-7.48-1.46l-2.29-.44c.15-.31,1.91-4,1.94-5.9,0-1.68-.4-3.83-1.8-4.93a3,3,0,0,0-4.39.62c-1.35,2.13.42,6.32,1.86,8.05.11.13,1.8,1.74,2.25,2.13-1.68-.33-3.35-.67-5-1.08a50.91,50.91,0,0,1-6.51-2c.07-.14,1.92-4,2-5.93,0-1.68-.4-3.83-1.8-4.93a3,3,0,0,0-4.4.62c-1.35,2.13.42,6.32,1.87,8,.11.13,1.93,1.87,2.28,2.16l-.37-.13a39.22,39.22,0,0,1-6-3.18c-1.07-.67-2.05-1.37-3-2.07.42-.68,2.3-3.82,2.52-5.56s0-3.85-1.25-5.1a3,3,0,0,0-4.43.13c-1.58,2-.28,6.33,1,8.21.06.1.87,1.06,1.46,1.75-.42-.32-.86-.65-1.25-1-1.49-1.19-2.79-2.37-3.92-3.43-.64-.61-1.21-1.17-1.73-1.69.06-.89.26-4.45-.33-6.07s-1.75-3.43-3.46-3.95a3,3,0,0,0-3.87,2.17c-.49,2.47,2.67,5.74,4.64,6.83.17.09,3,1.26,3,1.22v-.05c.49.52,1,1.07,1.63,1.66,1.11,1.08,2.38,2.29,3.85,3.52a51.93,51.93,0,0,0,4.93,3.73,38,38,0,0,0,6,3.35s.05,0,.08,0c-.74-.07-2.8-.22-3-.22-2.25.1-6.54,1.6-7.21,4a3,3,0,0,0,2.49,3.67C140,176.67,141.92,175.55,143.14,174.4Z" style="fill:#92E3A9"></path><path d="M160.79,133.19s-1.8-2.46-1.93-2.6c-1.56-1.63-5.51-3.87-7.78-2.78a3,3,0,0,0-1.12,4.3c.92,1.51,3,2.19,4.68,2.35C156.61,134.65,160.79,133.19,160.79,133.19Z" style="fill:#92E3A9"></path><path d="M377.83,163.61C376,163,372.72,160,372.71,160s2.64-1.54,2.82-1.61c2.07-.87,6.6-1.34,8.24.57a3,3,0,0,1-.7,4.39C381.61,164.35,379.43,164.13,377.83,163.61Z" style="fill:#92E3A9"></path><path d="M368.17,172.17c-1.58-1-3.77-4.52-3.94-4.8a54.76,54.76,0,0,1-6.2,3.36c-1.24.58-2.51,1.12-3.79,1.65.62-.16,1.18-.29,1.26-.3,2.23-.29,6.71.45,7.79,2.73a3,3,0,0,1-1.83,4.05c-1.67.59-3.72-.19-5.12-1.12s-3.36-3.87-3.85-4.65l-1.48.6c-2.37.94-4.74,1.87-7,2.85-.81.35-1.59.72-2.38,1.08l1.09-.25c2.23-.3,6.72.45,7.8,2.73a3,3,0,0,1-1.83,4c-1.68.6-3.73-.19-5.13-1.11s-3.16-3.59-3.76-4.51c-.79.4-1.59.8-2.34,1.22-.5.3-1,.56-1.5.89l-1.47.94c-.91.63-1.85,1.28-2.72,1.92-.61.44-1.18.87-1.76,1.3.8-.35,2.38-1,2.52-1,2.16-.63,6.71-.57,8.12,1.52a3,3,0,0,1-1.19,4.28c-1.57.84-3.71.37-5.24-.33s-4.28-3.75-4.61-4.12c-.95.72-1.87,1.42-2.73,2.11s-1.49,1.19-2.18,1.76l-1.18-1.05c.77-.61,1.58-1.24,2.45-1.89s2-1.5,3.09-2.28a33.46,33.46,0,0,1-1.5-3.5,21.7,21.7,0,0,1-5.91-.92c-.4,1.13-.77,2.23-1.11,3.27-.24.72-.46,1.41-.67,2.07l-1.25-1.11c.17-.47.33-1,.5-1.44.4-1.15.85-2.36,1.33-3.61-.42-.24-3.84-2.23-4.92-3.73s-1.85-3.39-1.32-5.09a3,3,0,0,1,4-2c2.32,1,3.24,5.44,3,7.68,0,.13-.31,1.55-.51,2.45l.59-1.52c.41-1,.85-2.05,1.31-3.15.24-.52.49-1,.74-1.57s.55-1.07.82-1.61c.67-1.23,1.4-2.45,2.16-3.67-.9-.35-4.08-1.67-5.26-2.88s-2.34-3.06-2.07-4.82a3,3,0,0,1,3.62-2.57c2.45.63,4,4.89,4.17,7.14,0,.14-.08,1.76-.14,2.65.47-.72.93-1.45,1.42-2.17,1.43-2.07,2.94-4.12,4.44-6.18l1.37-1.9c-.33-.12-4.14-1.6-5.46-3-1.18-1.2-2.34-3.06-2.08-4.82a3,3,0,0,1,3.63-2.56c2.44.62,4,4.89,4.16,7.13,0,.17-.11,2.51-.17,3.1,1-1.39,2-2.79,2.89-4.2a52.69,52.69,0,0,0,3.34-6c-.15,0-4.14-1.58-5.5-3-1.17-1.2-2.33-3.06-2.07-4.82a3,3,0,0,1,3.63-2.57c2.44.63,4,4.89,4.16,7.14,0,.18-.12,2.69-.18,3.14.06-.12.13-.23.18-.35a38.36,38.36,0,0,0,2.22-6.46c.32-1.22.55-2.41.76-3.56-.78-.21-4.3-1.21-5.65-2.32s-2.66-2.78-2.59-4.56a3,3,0,0,1,3.32-2.95c2.5.35,4.54,4.41,4.92,6.63,0,.12.1,1.37.14,2.28.08-.52.18-1.06.25-1.56.27-1.89.4-3.63.5-5.18.05-.88.08-1.67.1-2.42-.65-.6-3.25-3.05-3.93-4.64s-1.07-3.69-.19-5.24a3,3,0,0,1,4.3-1.09c2.06,1.47,2,6,1.32,8.16-.06.18-1.32,3-1.35,3l0,0c0,.72,0,1.49,0,2.33-.07,1.55-.16,3.3-.39,5.2a51.72,51.72,0,0,1-1,6.1,38.9,38.9,0,0,1-2.1,6.59s0,0,0,.08c.48-.56,1.88-2.09,2-2.19,1.7-1.48,5.85-3.33,8-2a3,3,0,0,1,.71,4.38c-1.08,1.42-3.22,1.89-4.9,1.9-1.89,0-5.64-1.69-5.94-1.83a53.32,53.32,0,0,1-3.31,6.22c-.72,1.17-1.48,2.32-2.25,3.47.43-.47.82-.89.88-.94,1.7-1.48,5.85-3.33,8-2a3,3,0,0,1,.71,4.39c-1.07,1.42-3.21,1.89-4.9,1.9s-4.93-1.38-5.77-1.76c-.31.44-.6.88-.91,1.31-1.45,2.09-2.91,4.17-4.28,6.26-.49.73-.94,1.48-1.39,2.21.38-.41.71-.76.77-.81,1.7-1.48,5.85-3.33,8-2A3,3,0,0,1,337,168c-1.07,1.42-3.21,1.89-4.89,1.9s-4.62-1.25-5.63-1.69c-.44.77-.88,1.54-1.27,2.31-.26.53-.54,1-.77,1.57s-.47,1.07-.7,1.59c-.41,1-.84,2.09-1.21,3.11-.26.7-.5,1.38-.75,2.06.48-.74,1.43-2.16,1.52-2.27a11.61,11.61,0,0,1,4.91-3.18,3.48,3.48,0,0,1,.47-.47,3,3,0,0,1,4.41.54c1.39,2.1-.3,6.32-1.71,8.08-.08.1-1.11,1.13-1.77,1.76l1.34-.94c.9-.64,1.83-1.24,2.82-1.9l1.48-.91c.49-.31,1.05-.58,1.58-.88,1.23-.67,2.52-1.28,3.82-1.87-.55-.79-2.48-3.65-2.8-5.31s-.26-3.84.94-5.16a3,3,0,0,1,4.43-.14c1.69,1.87.67,6.3-.46,8.25-.07.12-1,1.43-1.58,2.14.79-.35,1.58-.7,2.39-1,2.33-.94,4.73-1.82,7.11-2.71l2.18-.83c-.2-.28-2.56-3.62-2.92-5.48-.31-1.65-.26-3.84.93-5.16a3,3,0,0,1,4.44-.14c1.69,1.87.66,6.29-.46,8.24-.09.15-1.48,2-1.85,2.49,1.6-.61,3.18-1.23,4.73-1.91A53.88,53.88,0,0,0,363.8,167c-.1-.13-2.58-3.61-2.94-5.51-.32-1.65-.26-3.85.93-5.17a3,3,0,0,1,4.44-.14c1.69,1.87.66,6.3-.47,8.25-.09.15-1.58,2.18-1.88,2.52.11-.07.24-.12.35-.19a38.69,38.69,0,0,0,5.41-4.17c.94-.84,1.79-1.7,2.59-2.55-.53-.6-2.91-3.37-3.43-5.05s-.68-3.79.36-5.23a3,3,0,0,1,4.39-.63c1.89,1.67,1.35,6.19.45,8.25-.05.11-.68,1.2-1.14,2l1.07-1.17c1.26-1.43,2.33-2.81,3.27-4,.53-.71,1-1.36,1.42-2-.21-.86-1-4.34-.72-6s1.15-3.68,2.74-4.48a3,3,0,0,1,4.19,1.47c.9,2.35-1.66,6.11-3.41,7.52-.15.13-2.74,1.76-2.75,1.72v-.05c-.4.59-.84,1.23-1.33,1.91-.91,1.26-1.95,2.67-3.19,4.13a52.41,52.41,0,0,1-4.22,4.52,38.86,38.86,0,0,1-5.39,4.34l-.07,0c.71-.2,2.71-.7,2.87-.72,2.24-.29,6.72.45,7.8,2.73a3,3,0,0,1-1.83,4C371.62,173.88,369.58,173.09,368.17,172.17Z" style="fill:#92E3A9"></path><path d="M343.74,134.58s1.36-2.73,1.47-2.89c1.25-1.87,4.76-4.76,7.19-4.07a3,3,0,0,1,1.83,4c-.65,1.65-2.59,2.67-4.21,3.12C348.11,135.31,343.75,134.58,343.74,134.58Z" style="fill:#92E3A9"></path><path d="M361.38,411.22c-1.07-1.65-1.69-6-1.69-6s3,.47,3.2.52c2.16.63,6,3.12,6,5.64a3,3,0,0,1-3.3,3C363.85,414.18,362.3,412.64,361.38,411.22Z" style="fill:#92E3A9"></path><path d="M348.49,411.79c-.58-1.8-.09-5.89-.05-6.21a53.81,53.81,0,0,1-6.92-1.29c-1.33-.33-2.66-.71-4-1.1.58.27,1.1.51,1.16.55,1.92,1.18,4.94,4.59,4.34,7a3,3,0,0,1-4,2c-1.68-.6-2.77-2.5-3.28-4.1s-.17-5.12-.06-6l-1.52-.46c-2.44-.76-4.86-1.53-7.26-2.21-.85-.24-1.69-.45-2.53-.66l1,.49c1.92,1.18,4.93,4.58,4.33,7a3,3,0,0,1-4,2c-1.68-.59-2.78-2.49-3.28-4.1s-.2-4.77-.09-5.87c-.86-.19-1.73-.38-2.58-.52-.59-.08-1.14-.21-1.73-.26l-1.73-.19c-1.11-.08-2.25-.17-3.33-.22l-2.18-.09c.84.23,2.49.71,2.62.77,2.07.87,5.57,3.78,5.35,6.29a3,3,0,0,1-3.62,2.57c-1.75-.33-3.12-2.05-3.86-3.55-.82-1.66-1-5.61-1-6.11-1.19,0-2.35-.07-3.45-.08h-2.8l-.26-1.56c1,0,2,0,3.09.07s2.51.1,3.84.18a31.82,31.82,0,0,1,1-3.66,21.66,21.66,0,0,1-4-4.44c-1,.63-2,1.24-2.92,1.84l-1.83,1.19-.27-1.65,1.3-.81c1-.63,2.15-1.29,3.3-2-.18-.45-1.58-4.15-1.47-6,.1-1.68.69-3.79,2.17-4.78a3,3,0,0,1,4.34,1c1.18,2.22-.91,6.26-2.48,7.88-.09.09-1.21,1-1.93,1.58l1.42-.81c1-.55,1.94-1.06,3-1.62l1.56-.76c.52-.27,1.1-.48,1.65-.73,1.3-.54,2.64-1,4-1.48-.47-.85-2.11-3.88-2.27-5.56s.11-3.85,1.43-5.05a3,3,0,0,1,4.43.29c1.5,2,0,6.33-1.26,8.16-.08.12-1.17,1.33-1.78,2,.82-.27,1.64-.54,2.47-.79,2.42-.71,4.89-1.35,7.35-2l2.25-.61c-.17-.3-2.2-3.86-2.38-5.74-.15-1.67.11-3.85,1.43-5.05a3,3,0,0,1,4.43.29c1.5,2,.05,6.33-1.26,8.16-.1.14-1.66,1.88-2.08,2.3,1.65-.45,3.29-.92,4.89-1.45a51.48,51.48,0,0,0,6.33-2.51c-.08-.14-2.21-3.84-2.39-5.77-.16-1.67.11-3.85,1.42-5a3,3,0,0,1,4.43.29c1.51,2,.06,6.33-1.25,8.16-.11.15-1.79,2-2.12,2.33a3.92,3.92,0,0,0,.36-.16,37.94,37.94,0,0,0,5.79-3.62c1-.75,1.95-1.52,2.83-2.29-.47-.65-2.58-3.64-2.93-5.36s-.31-3.84.86-5.17a3,3,0,0,1,4.44-.2c1.72,1.84.75,6.29-.35,8.25-.06.11-.79,1.13-1.33,1.86.39-.35.81-.71,1.18-1.06,1.39-1.3,2.59-2.57,3.64-3.71.6-.65,1.12-1.25,1.61-1.82-.13-.87-.6-4.41-.13-6.07s1.49-3.55,3.15-4.2a3,3,0,0,1,4,1.87c.67,2.43-2.24,5.93-4.12,7.16-.16.11-2.9,1.49-2.9,1.44v-.05c-.46.56-.95,1.15-1.5,1.78-1,1.16-2.21,2.47-3.58,3.8a52.11,52.11,0,0,1-4.64,4.09,38.78,38.78,0,0,1-5.78,3.8l-.08,0c.73-.13,2.78-.43,2.94-.44,2.25-.07,6.64,1.1,7.49,3.48a3,3,0,0,1-2.21,3.85c-1.73.43-3.69-.55-5-1.61-1.47-1.19-3.31-4.87-3.46-5.16a54.72,54.72,0,0,1-6.49,2.75c-1.29.45-2.61.87-3.93,1.27.63-.09,1.2-.17,1.28-.17,2.25-.08,6.64,1.1,7.49,3.47a3,3,0,0,1-2.21,3.85c-1.73.43-3.69-.55-5-1.61s-3-4.17-3.39-5l-1.53.45c-2.44.71-4.89,1.41-7.27,2.16-.84.27-1.65.56-2.47.85l1.11-.15c2.25-.07,6.64,1.1,7.5,3.47a3,3,0,0,1-2.22,3.85c-1.72.44-3.68-.55-5-1.6s-2.8-3.88-3.31-4.86c-.83.33-1.66.65-2.44,1-.54.25-1.07.45-1.59.74L313,385c-1,.54-2,1.1-2.89,1.65-.65.38-1.26.75-1.88,1.13.83-.28,2.47-.78,2.61-.81a11.76,11.76,0,0,1,5.82.62,3.49,3.49,0,0,1,.65-.06,3,3,0,0,1,3.09,3.19c-.24,2.51-4.21,4.72-6.41,5.2-.13,0-1.57.18-2.49.26l1.63.1c1.11.08,2.21.19,3.39.31l1.73.22c.58.07,1.18.21,1.78.31,1.37.26,2.76.59,4.14,1,.07-1,.37-4.4,1.17-5.89s2.22-3.15,4-3.42a3,3,0,0,1,3.53,2.68c.14,2.52-3.45,5.31-5.55,6.12-.13.05-1.7.46-2.57.66.83.23,1.66.45,2.49.71,2.41.74,4.83,1.56,7.24,2.37l2.22.74c0-.35.28-4.44,1.18-6.1.79-1.49,2.21-3.15,4-3.43a3,3,0,0,1,3.54,2.69c.14,2.51-3.45,5.31-5.55,6.11-.16.06-2.43.65-3,.77,1.63.53,3.25,1,4.88,1.49a50.82,50.82,0,0,0,6.67,1.4c0-.16.27-4.43,1.18-6.13.8-1.49,2.22-3.15,4-3.43a3,3,0,0,1,3.53,2.69c.14,2.51-3.45,5.31-5.55,6.11-.16.07-2.6.69-3.05.78l.39.06a37.54,37.54,0,0,0,6.83.17c1.26-.06,2.46-.19,3.62-.35,0-.79-.14-4.45.51-6.08s1.86-3.37,3.58-3.84a3,3,0,0,1,3.81,2.28c.41,2.49-2.85,5.66-4.85,6.69-.11.06-1.28.5-2.13.82l1.56-.23c1.88-.32,3.59-.72,5.09-1.09.86-.21,1.63-.42,2.34-.63.38-.8,1.94-4,3.24-5.14s3.21-2.13,4.95-1.76a3,3,0,0,1,2.33,3.78c-.78,2.4-5.13,3.71-7.39,3.71-.19,0-3.23-.36-3.21-.41l0,0c-.69.21-1.42.43-2.23.65-1.5.4-3.2.84-5.09,1.2a52.54,52.54,0,0,1-6.12.85,38.12,38.12,0,0,1-6.92,0h-.08c.68.29,2.55,1.16,2.69,1.25,1.92,1.17,4.93,4.58,4.34,7a3,3,0,0,1-4,2C350.09,415.3,349,413.4,348.49,411.79Z" style="fill:#92E3A9"></path><path d="M353.17,367.21s2.77-1.27,3-1.33c2.15-.66,6.7-.69,8.15,1.37a3,3,0,0,1-1.12,4.3c-1.55.87-3.7.44-5.24-.23C356.11,370.53,353.17,367.21,353.17,367.21Z" style="fill:#92E3A9"></path><path d="M107.41,396.21c1.07-1.65,1.69-6,1.69-6s-3,.47-3.2.52c-2.16.63-6,3.12-6,5.64a3,3,0,0,0,3.3,3C104.94,399.17,106.49,397.63,107.41,396.21Z" style="fill:#92E3A9"></path><path d="M120.3,396.78c.58-1.8.09-5.89,0-6.21a53.81,53.81,0,0,0,6.92-1.29c1.33-.33,2.66-.71,4-1.1l-1.17.55c-1.91,1.18-4.93,4.59-4.33,7a3,3,0,0,0,4,2c1.67-.6,2.77-2.5,3.28-4.1s.16-5.12.06-6l1.52-.46c2.44-.76,4.86-1.53,7.26-2.21.85-.24,1.69-.45,2.53-.66-.52.24-.95.45-1,.49-1.92,1.18-4.93,4.58-4.34,7a3,3,0,0,0,4,2c1.68-.59,2.77-2.49,3.28-4.1s.2-4.77.08-5.87c.87-.19,1.74-.38,2.59-.52.58-.08,1.14-.21,1.73-.26l1.73-.19c1.1-.08,2.24-.17,3.32-.22l2.19-.09c-.84.23-2.49.71-2.62.77-2.07.87-5.57,3.78-5.35,6.29a3,3,0,0,0,3.62,2.57c1.75-.33,3.12-2.05,3.86-3.55.82-1.66,1-5.61,1-6.11,1.19,0,2.35-.07,3.45-.08h2.8l.25-1.56c-1,0-2,0-3.09.07s-2.5.1-3.83.18a34.16,34.16,0,0,0-1-3.66,22,22,0,0,0,4-4.44c1,.63,2,1.24,2.92,1.84l1.83,1.19.27-1.65-1.3-.81c-1-.63-2.15-1.29-3.3-2,.17-.45,1.58-4.15,1.47-6-.1-1.68-.69-3.79-2.17-4.78a3,3,0,0,0-4.34,1c-1.18,2.22.91,6.26,2.48,7.88.09.09,1.21,1,1.93,1.58l-1.42-.81c-1-.55-1.94-1.06-3-1.62l-1.57-.76c-.51-.27-1.09-.48-1.65-.73-1.29-.54-2.63-1-4-1.48.48-.85,2.12-3.88,2.28-5.56s-.11-3.85-1.43-5.05a3,3,0,0,0-4.43.29c-1.5,2-.05,6.33,1.26,8.16.08.12,1.17,1.33,1.78,2-.82-.27-1.64-.54-2.48-.79-2.41-.71-4.88-1.35-7.34-2l-2.25-.61c.17-.3,2.2-3.86,2.38-5.74.15-1.67-.11-3.85-1.43-5.05a3,3,0,0,0-4.43.29c-1.5,2-.05,6.33,1.26,8.16.1.14,1.66,1.88,2.08,2.3-1.65-.45-3.29-.92-4.89-1.45a51.48,51.48,0,0,1-6.33-2.51c.08-.14,2.21-3.84,2.39-5.77.16-1.67-.11-3.85-1.42-5a3,3,0,0,0-4.43.29c-1.51,2-.06,6.33,1.25,8.16.1.15,1.79,2,2.12,2.33l-.37-.16a39,39,0,0,1-5.79-3.62c-1-.75-1.94-1.52-2.82-2.29.47-.65,2.57-3.64,2.93-5.36s.31-3.84-.86-5.17a3,3,0,0,0-4.44-.2c-1.72,1.84-.75,6.29.35,8.25.06.11.79,1.13,1.33,1.86-.39-.35-.81-.71-1.18-1.06-1.39-1.3-2.59-2.57-3.65-3.71-.59-.65-1.11-1.25-1.6-1.82.13-.87.6-4.41.13-6.07s-1.49-3.55-3.15-4.2a3,3,0,0,0-4,1.87c-.67,2.43,2.24,5.93,4.12,7.16.16.11,2.9,1.49,2.9,1.44v-.05c.46.56,1,1.15,1.5,1.78,1,1.16,2.21,2.47,3.58,3.8a50.74,50.74,0,0,0,4.64,4.09,38.78,38.78,0,0,0,5.78,3.8l.07,0c-.72-.13-2.77-.43-2.93-.44-2.25-.07-6.64,1.1-7.49,3.48a3,3,0,0,0,2.21,3.85c1.73.43,3.69-.55,5-1.61,1.48-1.19,3.32-4.87,3.47-5.16a54,54,0,0,0,6.49,2.75c1.29.45,2.61.87,3.93,1.27-.63-.09-1.2-.17-1.28-.17-2.25-.08-6.64,1.1-7.49,3.47a3,3,0,0,0,2.21,3.85c1.72.43,3.68-.55,5-1.61s3-4.17,3.39-5c.51.15,1,.31,1.52.45,2.45.71,4.9,1.41,7.28,2.16.83.27,1.65.56,2.47.85l-1.11-.15c-2.25-.07-6.64,1.1-7.5,3.47a3,3,0,0,0,2.21,3.85c1.73.44,3.69-.55,5-1.6s2.8-3.88,3.31-4.86c.82.33,1.65.65,2.44,1,.53.25,1.06.45,1.59.74l1.54.79c1,.54,2,1.1,2.9,1.65.65.38,1.26.75,1.88,1.13-.84-.28-2.47-.78-2.62-.81a11.73,11.73,0,0,0-5.81.62,3.52,3.52,0,0,0-.66-.06,3,3,0,0,0-3.08,3.19c.24,2.51,4.21,4.72,6.41,5.2.13,0,1.57.18,2.48.26l-1.62.1c-1.11.08-2.21.19-3.39.31l-1.73.22c-.58.07-1.18.21-1.78.31-1.38.26-2.76.59-4.15,1-.07-1-.36-4.4-1.16-5.89s-2.22-3.15-4-3.42a3,3,0,0,0-3.53,2.68c-.14,2.52,3.45,5.31,5.55,6.12.13.05,1.7.46,2.57.66-.83.23-1.66.45-2.5.71-2.4.74-4.82,1.56-7.23,2.37l-2.22.74c0-.35-.29-4.44-1.18-6.1-.79-1.48-2.22-3.15-4-3.43a3,3,0,0,0-3.54,2.69c-.14,2.51,3.45,5.31,5.55,6.11.16.06,2.43.65,3,.77-1.63.53-3.26,1.05-4.88,1.49a50.82,50.82,0,0,1-6.67,1.4c0-.16-.27-4.43-1.18-6.13-.8-1.49-2.22-3.15-4-3.43a3,3,0,0,0-3.54,2.69c-.13,2.51,3.45,5.31,5.56,6.11.16.07,2.6.69,3,.78l-.4.06a37.43,37.43,0,0,1-6.82.17c-1.26-.06-2.46-.19-3.63-.35,0-.79.15-4.45-.5-6.08s-1.86-3.37-3.58-3.84a3,3,0,0,0-3.81,2.28c-.41,2.49,2.85,5.66,4.85,6.69.11.06,1.28.5,2.13.82l-1.57-.23c-1.88-.32-3.58-.72-5.08-1.09-.86-.21-1.63-.42-2.34-.63-.38-.8-1.94-4-3.25-5.14s-3.2-2.13-4.94-1.76a3,3,0,0,0-2.33,3.78c.78,2.4,5.13,3.71,7.38,3.71.2,0,3.24-.36,3.22-.41l0,0c.68.21,1.42.43,2.23.65,1.5.4,3.2.84,5.08,1.2a52.72,52.72,0,0,0,6.13.85,38.12,38.12,0,0,0,6.92,0h.08c-.68.29-2.55,1.16-2.69,1.25-1.92,1.17-4.93,4.58-4.34,7a3,3,0,0,0,4,2C118.7,400.29,119.79,398.39,120.3,396.78Z" style="fill:#92E3A9"></path><path d="M115.62,352.2s-2.77-1.27-3-1.33c-2.15-.66-6.7-.69-8.15,1.37a3,3,0,0,0,1.12,4.3c1.55.87,3.7.44,5.24-.23C112.68,355.52,115.61,352.2,115.62,352.2Z" style="fill:#92E3A9"></path></g><g id="freepik--Character--inject-32"><path d="M181.7,120.84s-21.49-28-21.64-30.68,5.78-11.41,6.07-13.34,1-9.19,1-9.19l-19,9.64s-2.52,10.22-.89,13.63,24.6,46.24,24.6,46.24,9.79-7.26,10.38-11.56S181.7,120.84,181.7,120.84Z" style="fill:#fff;stroke:#263238;stroke-linecap:round;stroke-linejoin:round"></path><path d="M146.13,73s-.6,3.26.89,5,2.81,2.81,4.44,3,57.65-51,57.65-51,.45-.59-2.81-4.15-5-4-5-4Z" style="fill:#fff;stroke:#263238;stroke-linecap:round;stroke-linejoin:round"></path><path d="M168.36,52.37s1.92,5.93,7.41,7.7L173,62.67s-5.78-2-6.82-8.08Z" style="fill:#92E3A9;stroke:#263238;stroke-linecap:round;stroke-linejoin:round"></path><path d="M145.24,69.26s-2.52,2.82-1.78,4,2.67-.29,2.67-.29l2.37-2.08Z" style="fill:#fff;stroke:#263238;stroke-linecap:round;stroke-linejoin:round"></path><path d="M148.65,65.56s-3.26,2.67-3.41,3.7A1.84,1.84,0,0,0,147,71.19c.74-.15,3.11-2.22,3.11-2.22Z" style="fill:#fff;stroke:#263238;stroke-linecap:round;stroke-linejoin:round"></path><path d="M156.35,63.48s-4.74-1-5.33-.44-2.82,3.26-2.82,4.44S150.13,69,150.13,69Z" style="fill:#fff;stroke:#263238;stroke-linecap:round;stroke-linejoin:round"></path><path d="M159.47,80.82s-1.34-11.26-1.93-11.71-2.37-3.85-3-4.44a2.14,2.14,0,0,0-2.82,2.81c.89,2.82,1.48,4.15,1.48,4.15s-3.26,8.3-3.11,12.75a14,14,0,0,0,2.22,7.26" style="fill:#fff;stroke:#263238;stroke-linecap:round;stroke-linejoin:round"></path><path d="M190.94,173.15s-16,94.46-13.5,101.21,25.93,28.77,25.93,28.77,18.11,23.79,20.24,25.57,18.47-14.21,19.18-35.16-22-97.31-24.51-103.35S194.13,166.4,190.94,173.15Z" style="fill:#263238;stroke:#263238;stroke-linecap:round;stroke-linejoin:round"></path><path d="M207.27,153.62,181.7,119.88s1.07,5.32-4.26,10.3a108.64,108.64,0,0,1-9.23,7.81l13.85,24.5s11.72,19.89,19.89,29.12,20.24,28.77,20.24,28.77S210.83,162.85,207.27,153.62Z" style="fill:#92E3A9;stroke:#263238;stroke-linecap:round;stroke-linejoin:round"></path><path d="M175.64,372.92s-9.49-5.34-11.67-3.76-9.09,15.62-12.65,27.49.39,23.92,2.77,23.92,9.88-14.63,12.85-20.17S178,393.09,178,393.09Z" style="fill:#fff;stroke:#263238;stroke-linecap:round;stroke-linejoin:round"></path><path d="M154.09,420.57c1.66,0,5.86-7.21,9.24-13.42-4.61-1.4-8.79-6-7.86-10.5s11.91-19.83,16.24-25.72c-2.88-1.32-6.5-2.67-7.74-1.77-2.17,1.58-9.09,15.62-12.65,27.49S151.71,420.57,154.09,420.57Z" style="fill:#263238;stroke:#263238;stroke-linecap:round;stroke-linejoin:round"></path><path d="M228.24,435.4a73.41,73.41,0,0,1-2.18,12.06c-1.58,5.34-2.57,7.72.4,12.07S233,472.18,233,472.18s8.9,8.11,12.06,8.11,5.94-7.91,4.55-13.45-9.49-12.26-10.48-15.62,1-10.68,1-10.68Z" style="fill:#fff;stroke:#263238;stroke-linecap:round;stroke-linejoin:round"></path><path d="M247.22,462.12v1.36c0,4.15-9.49,5.54-12.26,3.56s-3.56-6.33-7.32-10.68a8.49,8.49,0,0,1-2-7.31c-1.27,4.27-1.79,6.58.87,10.48,3,4.35,6.52,12.65,6.52,12.65s8.9,8.11,12.06,8.11,5.94-7.91,4.55-13.45A15.48,15.48,0,0,0,247.22,462.12Z" style="fill:#263238;stroke:#263238;stroke-linecap:round;stroke-linejoin:round"></path><path d="M182.16,401.39s25.71,27.68,45.29,37.77,36,11.27,36,11.27,3.36-13.45,7.32-33.62,4.75-27.68,4.75-27.68S248.6,400,216.57,399.41s-37.17-4.15-37.17-4.15Z" style="fill:#92E3A9;stroke:#263238;stroke-linecap:round;stroke-linejoin:round"></path><path d="M322.53,147.51s1.52,31.63,10.12,61,18.47,73.12,18.47,79.7-4.3,10.88-10.63,5.82a28.63,28.63,0,0,1-8.56-11.13s-4.34-21.76-6.11-36.94-12.4-60.73-12.4-60.73l-4.81-26.57Z" style="fill:#263238;stroke:#263238;stroke-linecap:round;stroke-linejoin:round"></path><path d="M328.6,96.27s4.9-13,5-13.91-2.5-10.55-2.39-11.31a96.36,96.36,0,0,1,3.16-9.46c.87-2,3.37-3.48,4.13-2.82a13.07,13.07,0,0,1,1.84,3.15s2.51-.11,3.27,1.52a6.73,6.73,0,0,1,.76,2.5s2.61.33,3,1.31l.44,1a3,3,0,0,1,2.28,3A48.85,48.85,0,0,1,347.85,83,51,51,0,0,1,345,88.88c-.22.65-7.5,20.44-7.5,20.44Z" style="fill:#fff;stroke:#263238;stroke-linecap:round;stroke-linejoin:round"></path><path d="M333,66.81s3.81-4.89,4-6.2,3.37-1.63,2.18,2.61a42,42,0,0,1-2.39,6.63s4.56,3.27,4.89,4.68-.44,4.67-.44,4.67" style="fill:none;stroke:#263238;stroke-linecap:round;stroke-linejoin:round"></path><path d="M340.34,61.92a47.73,47.73,0,0,1-2.5,7.93" style="fill:none;stroke:#263238;stroke-linecap:round;stroke-linejoin:round"></path><path d="M344.37,65.94s-.65,4.57-2.94,6.52" style="fill:none;stroke:#263238;stroke-linecap:round;stroke-linejoin:round"></path><path d="M347.85,68.22s-1.2,5.22-2.29,6.74-4.45.55-3.91-.43" style="fill:none;stroke:#263238;stroke-linecap:round;stroke-linejoin:round"></path><path d="M345.24,75.83a2.34,2.34,0,0,0,1.85,1.2" style="fill:none;stroke:#263238;stroke-linecap:round;stroke-linejoin:round"></path><polygon points="310.34 128.27 329.2 94.64 346.46 122.75 313.9 168.3 310.34 128.27" style="fill:#92E3A9;stroke:#263238;stroke-linecap:round;stroke-linejoin:round"></polygon><path d="M276.17,166.4s14.92-7.1,17.05-11S311,126.62,311,126.62s6.75,58.25,12.43,70.68,4.26,44.39,6.39,65l2.14,20.59s-6-12.07-8.53-13.14-12.43-4.61-14.56-8.16-8.17-14.92-8.17-14.92S314.17,344,317,366s3.55,27.35,3.55,27.35-7.1,1.06-11.72,1.42-8.88.35-8.88.35-5.68,6.75-8.16,7.82-26.28,5-38,5-20.25,1.07-44-.36-32.32-9.94-34.45-18.11-1.06-17.4-1.06-17.4,3.9-1.06,5.32-2.13,4.27-5,6-5.33,5.68-2.84,5.68-2.84,12.43-26.63,12.79-30.89-.71-27.7-.71-27.7,22.73,25.57,23.44,18.46,14.56-18.11,2.84-65.7-18.47-65.34-20.6-77.42a142.15,142.15,0,0,1-1.78-24.85s12.43,10.65,16,13.85,16.34,2.84,16.34,2.84Z" style="fill:#263238;stroke:#263238;stroke-linecap:round;stroke-linejoin:round"></path><path d="M264.09,206.17s3.2,24.86,5.33,47.24,6.39,71,6.39,71,2.49-34.8,1.78-42.61-9.94-79.2-9.94-79.2l-1.78-6.74h-5Z" style="fill:#92E3A9;stroke:#263238;stroke-linecap:round;stroke-linejoin:round"></path><path d="M247.63,115.24s-15.1,2.93-19.49,6.82-6.65,12.5-5.68,17.05,7.15,36.69,9.26,42.37,11.36,19.48,19.64,22.08,17.7,1.79,20.29-2.92a59.66,59.66,0,0,0,4.22-10.07s5.69-8.93,5.69-12.82,1-7.15-.49-11.37-2.76-13-5.52-22.56-1.95-17.38-6.17-22.89S255.42,114.92,247.63,115.24Z" style="fill:#92E3A9;stroke:#263238;stroke-linecap:round;stroke-linejoin:round"></path><path d="M233,164.27s2.12,13,7.64,19.16a29.17,29.17,0,0,0,12,8.12" style="fill:none;stroke:#263238;stroke-linecap:round;stroke-linejoin:round"></path><path d="M272.63,163.78s-2.6,11.86-8.93,21.6-11.85,11.69-17.54,7.47" style="fill:none;stroke:#263238;stroke-linecap:round;stroke-linejoin:round"></path><path d="M273.28,146.9S276,163,274.41,178.07s-5.52,21.43-11,22.08" style="fill:none;stroke:#263238;stroke-linecap:round;stroke-linejoin:round"></path><path d="M276.2,188.14a84.53,84.53,0,0,0,.49-26.14" style="fill:none;stroke:#263238;stroke-linecap:round;stroke-linejoin:round"></path><path d="M269.22,130.5s2.76,6.66,3.25,10.72" style="fill:none;stroke:#263238;stroke-linecap:round;stroke-linejoin:round"></path><path d="M226.52,139.76s2.76,27.27,6.17,37.17" style="fill:none;stroke:#263238;stroke-linecap:round;stroke-linejoin:round"></path><path d="M235.94,168.82s4.71,12.66,11.85,16.07" style="fill:none;stroke:#263238;stroke-linecap:round;stroke-linejoin:round"></path><path d="M267.11,171.58S260,185.7,253.8,187" style="fill:none;stroke:#263238;stroke-linecap:round;stroke-linejoin:round"></path><path d="M246.65,120.6S228,135.05,227.82,137.81s3.08,23.05,5.19,26.46,17.7,14.45,20,14.94a11.47,11.47,0,0,0,6.66-.49c1.79-.81,11.53-14.45,12.5-18s-2.6-25.81-3.41-28.09-1.3-4.22-6.66-6.81S246.65,120.6,246.65,120.6Z" style="fill:#fff;stroke:#263238;stroke-linecap:round;stroke-linejoin:round"></path><path d="M249.57,158.59s2.76,1.14,4.39.32a6.13,6.13,0,0,0,2.27-1.78" style="fill:none;stroke:#263238;stroke-linecap:round;stroke-linejoin:round"></path><path d="M245.52,163.46s6.49,1.3,8.92.32,7-3.4,7-3.4-3.9,7.46-6.34,8C252.5,168.85,246.33,164.6,245.52,163.46Z" style="fill:none;stroke:#263238;stroke-linecap:round;stroke-linejoin:round"></path><path d="M258.18,147.87s2.76-3.08,6.17-1.62" style="fill:none;stroke:#263238;stroke-linecap:round;stroke-linejoin:round;stroke-width:2px"></path><path d="M254.61,141.71s4.06-2.93,7.14-2.44,3.41,1.3,3.41,1.3-6.82-.16-10.07,2.27C255.09,142.84,254.44,142.68,254.61,141.71Z" style="fill:#263238;stroke:#263238;stroke-linecap:round;stroke-linejoin:round"></path><path d="M244.4,149.66s-3.89-1.43-6.21,1.46" style="fill:none;stroke:#263238;stroke-linecap:round;stroke-linejoin:round;stroke-width:2px"></path><path d="M244.67,142.54s-5-.68-7.46,1.19-2.4,2.75-2.4,2.75,5.95-3.34,10-2.71C244.77,143.77,245.26,143.33,244.67,142.54Z" style="fill:#263238;stroke:#263238;stroke-linecap:round;stroke-linejoin:round"></path><path d="M225.06,125.63s19.64-9.58,41.89-7l-1.47-8.6s22.9-9.58,22.41-10.07-17.54-4.06-28.25-7.3-18.51-8.61-19.81-8S214.34,100,208,103.72s-11.36,4.87-10.22,5.35,26.62,7.47,26.62,7.47Z" style="fill:#263238;stroke:#263238;stroke-linecap:round;stroke-linejoin:round"></path><path d="M208.18,113.94A4.1,4.1,0,0,0,207,116.7c-.16,2,1.3,28.09,1.3,28.09l1.3-1.62s1,2.76,1.3,1.62.48-1.95.48-1.95.81,2.27,1.3,1.63a4,4,0,0,0,.49-1.95s1.3,2.59,1.46,1-1.62-21.92-2.76-25a24.45,24.45,0,0,0-2.11-4.55l-.33-11.2,1.63-1s-2.76-.65-3.09,2A92.55,92.55,0,0,0,208.18,113.94Z" style="fill:#263238;stroke:#263238;stroke-linecap:round;stroke-linejoin:round"></path></g></svg>
